<?xml version="1.0" encoding="UTF-8"?>
<svg width="752pt" height="752pt" version="1.1" viewBox="0 0 752 752" xmlns="http://www.w3.org/2000/svg">
 <g fill="#c5c5c5">
  <path d="m212.53 177.98c10.461 0 18.941 10.461 18.941 18.941v358.74c0 10.461-8.4805 18.941-18.941 18.941s-18.941-10.461-18.941-18.941v-358.74c0-10.461 8.4805-18.941 18.941-18.941z"/>
  <path d="m326.19 177.98c10.461 0 18.941 10.461 18.941 18.941v358.74c0 10.461-8.4805 18.941-18.941 18.941-10.461 0-18.941-10.461-18.941-18.941v-358.74c0-10.461 8.4805-18.941 18.941-18.941z"/>
  <path d="m403.07 213.66c9.4727-4.4375 21.594 1.4375 25.191 9.1172l152.2 324.85c4.4375 9.4727 0.35547 20.754-9.1172 25.191s-21.594-1.4375-25.191-9.1172l-152.2-324.85c-4.4375-9.4727-0.35547-20.754 9.1172-25.191z"/>
 </g>
</svg>
